# Blender 3.5.0
# www.blender.org
mtllib counter1.mtl
o Boundry_Wall_Brick_Curved_02
v -5.679397 0.705784 -2.076042
v -4.945268 0.705784 -2.272979
v -4.256552 0.705784 -2.594539
v -3.634222 0.705784 -3.030929
v -3.097230 0.705784 -3.568860
v -2.661927 0.705784 -4.191950
v -2.341569 0.705784 -4.881226
v -2.145913 0.705784 -5.615697
v -2.884189 0.705784 -5.077889
v -3.162097 0.705784 -4.479948
v -3.539719 0.705784 -3.939422
v -4.005556 0.705784 -3.472771
v -4.545422 0.705784 -3.094206
v -5.142878 0.705784 -2.815255
v -5.779729 0.705784 -2.644413
v -2.145913 0.541835 -5.615697
v -2.341569 0.541835 -4.881226
v -2.661927 0.541835 -4.191950
v -3.097229 0.541835 -3.568860
v -3.634222 0.541835 -3.030930
v -4.256551 0.541835 -2.594540
v -4.945267 0.541835 -2.272980
v -5.679396 0.541835 -2.076042
v -5.779729 0.541835 -2.644413
v -5.142878 0.541835 -2.815255
v -4.545422 0.541835 -3.094206
v -4.005556 0.541835 -3.472771
v -3.539719 0.541835 -3.939421
v -3.162097 0.541835 -4.479948
v -2.884189 0.541835 -5.077889
v -5.670082 0.692784 -2.023274
v -4.926921 0.692784 -2.222635
v -4.229733 0.692784 -2.548151
v -3.599748 0.692784 -2.989909
v -3.056149 0.692784 -3.534457
v -2.615491 0.692784 -4.165212
v -2.291193 0.692784 -4.862967
v -2.093130 0.692784 -5.606474
v -2.105936 0.705784 -5.608712
v -2.303415 0.705784 -4.867397
v -2.626758 0.705784 -4.171700
v -3.066116 0.705784 -3.542804
v -3.608112 0.705784 -2.999861
v -4.236239 0.705784 -2.559406
v -4.931372 0.705784 -2.234850
v -5.672341 0.705784 -2.036077
v -2.934566 0.692784 -5.096148
v -3.208532 0.692784 -4.506685
v -3.580799 0.692784 -3.973825
v -4.040030 0.692784 -3.513791
v -4.572240 0.692784 -3.140595
v -5.161223 0.692784 -2.865600
v -5.789044 0.692784 -2.697180
v -5.786784 0.705784 -2.684377
v -5.156773 0.705784 -2.853385
v -4.565734 0.705784 -3.129340
v -4.031666 0.705784 -3.503839
v -3.570832 0.705784 -3.965477
v -3.197266 0.705784 -4.500198
v -2.922343 0.705784 -5.091717
v -2.093130 0.560354 -5.606474
v -2.291193 0.560354 -4.862967
v -2.615491 0.560354 -4.165213
v -3.056149 0.560354 -3.534457
v -3.599747 0.560354 -2.989909
v -4.229733 0.560354 -2.548151
v -4.926921 0.560354 -2.222635
v -5.670081 0.560354 -2.023274
v -5.673301 0.541835 -2.041511
v -4.933262 0.541835 -2.240034
v -4.239002 0.541835 -2.564183
v -3.611662 0.541835 -3.004086
v -3.070347 0.541835 -3.546346
v -2.631540 0.541835 -4.174453
v -2.308603 0.541835 -4.869277
v -2.111372 0.541835 -5.609662
v -5.789044 0.560354 -2.697180
v -5.161224 0.560354 -2.865600
v -4.572241 0.560354 -3.140595
v -4.040030 0.560354 -3.513791
v -3.580800 0.560354 -3.973824
v -3.208532 0.560354 -4.506685
v -2.934566 0.560354 -5.096148
v -2.917156 0.541835 -5.089837
v -3.192484 0.541835 -4.497445
v -3.566602 0.541835 -3.961935
v -4.028115 0.541835 -3.499615
v -4.562972 0.541835 -3.124563
v -5.154883 0.541835 -2.848201
v -5.785825 0.541835 -2.678944
v -6.384711 0.560354 -1.960682
v -6.384711 0.692784 -1.960682
v -6.384711 0.560354 -2.645008
v -6.384711 0.541835 -2.626489
v -6.384711 0.541835 -1.979201
v -6.384711 0.705784 -2.014266
v -6.384711 0.705784 -1.973683
v -6.384711 0.692784 -2.645008
v -6.384711 0.705784 -2.632007
v -6.384711 0.541835 -2.014266
v -6.384711 0.705784 -2.591425
v -6.384711 0.541835 -2.591425
v -2.141561 0.705784 -5.666406
v -2.436131 0.705784 -5.666406
v -2.141561 0.541835 -5.666406
v -2.106501 0.541835 -5.666406
v -2.087986 0.692784 -5.666406
v -2.100984 0.705784 -5.666406
v -2.087986 0.560354 -5.666406
v -2.782654 0.560354 -5.666406
v -2.763563 0.541835 -5.666406
v -2.782654 0.692784 -5.666406
v -2.769251 0.705784 -5.666406
v -2.727414 0.705784 -5.666406
v -2.727414 0.541835 -5.666406
v -2.145913 -0.237652 -5.615697
v -2.141561 -0.238011 -5.666406
v -2.884189 -0.233851 -5.077889
v -2.727414 -0.238010 -5.666406
v -3.162097 -0.229626 -4.479948
v -3.539719 -0.225806 -3.939422
v -4.005556 -0.222508 -3.472771
v -4.545422 -0.219833 -3.094206
v -4.970811 -0.218429 -2.895593
v -4.970696 -0.213982 -2.266158
v -4.945267 -0.214030 -2.272979
v -4.256552 -0.216303 -2.594539
v -3.634222 -0.219387 -3.030929
v -3.097230 -0.223189 -3.568860
v -2.661927 -0.227592 -4.191950
v -2.341569 -0.232462 -4.881226
v -5.142878 -0.217864 -2.815255
v -4.970811 -0.218431 -2.895593
v -5.779729 -0.216656 -2.644413
v -6.384711 -0.216281 -2.591425
v -5.679397 -0.212640 -2.076042
v -6.384711 -0.212202 -2.014266
v -4.970696 -0.213984 -2.266158
vn -0.0000 1.0000 -0.0000
vn 0.9963 -0.0000 0.0855
vn -0.0000 -1.0000 -0.0000
vn 0.7059 0.7057 0.0606
vn 0.0873 -0.0000 0.9962
vn 0.2591 -0.0000 0.9659
vn 0.4231 -0.0000 0.9061
vn 0.5741 -0.0000 0.8188
vn 0.7077 -0.0000 0.7065
vn 0.8198 -0.0000 0.5727
vn 0.9068 -0.0000 0.4215
vn 0.9663 -0.0000 0.2574
vn -0.0618 -0.7058 -0.7058
vn -0.1836 -0.7058 -0.6843
vn -0.2997 -0.7058 -0.6419
vn -0.4067 -0.7058 -0.5801
vn -0.5014 -0.7058 -0.5005
vn -0.5808 -0.7058 -0.4057
vn -0.6425 -0.7058 -0.2986
vn -0.6846 -0.7058 -0.1824
vn 0.7059 -0.7057 0.0606
vn 0.6846 -0.7058 0.1824
vn 0.6425 -0.7058 0.2986
vn 0.5808 -0.7058 0.4057
vn 0.5014 -0.7058 0.5005
vn 0.4067 -0.7058 0.5801
vn 0.2997 -0.7058 0.6419
vn 0.1836 -0.7057 0.6843
vn 0.0618 -0.7058 0.7058
vn -0.6846 0.7058 -0.1824
vn -0.6425 0.7058 -0.2986
vn -0.5808 0.7058 -0.4057
vn -0.5014 0.7058 -0.5005
vn -0.4067 0.7058 -0.5801
vn -0.2997 0.7058 -0.6419
vn -0.1836 0.7058 -0.6843
vn -0.0618 0.7058 -0.7058
vn 0.0618 0.7057 0.7058
vn 0.1836 0.7057 0.6843
vn 0.2997 0.7058 0.6419
vn 0.4068 0.7057 0.5801
vn 0.5014 0.7057 0.5005
vn 0.5808 0.7058 0.4057
vn 0.6425 0.7058 0.2986
vn 0.6846 0.7057 0.1824
vn -0.9663 -0.0000 -0.2574
vn -0.9068 -0.0000 -0.4215
vn -0.8198 -0.0000 -0.5727
vn -0.7077 -0.0000 -0.7065
vn -0.5741 -0.0000 -0.8188
vn -0.4231 -0.0000 -0.9061
vn -0.2591 -0.0000 -0.9659
vn -0.0873 -0.0000 -0.9962
vn -1.0000 -0.0000 -0.0000
vn -0.0000 -0.0000 -1.0000
vn 1.0000 -0.0000 -0.0000
vn -0.0000 -1.0000 0.0071
vt 0.433321 0.444961
vt 0.433321 0.389921
vt 0.433321 0.334882
vt 0.433321 0.279843
vt 0.433321 0.224804
vt 0.433321 0.169765
vt 0.433321 0.114725
vt 0.433321 0.059686
vt 0.540300 0.114725
vt 0.540300 0.169765
vt 0.540300 0.224804
vt 0.540300 0.279843
vt 0.540300 0.334882
vt 0.540300 0.389922
vt 0.540300 0.444961
vt 0.804551 0.059686
vt 0.196217 0.059686
vt 0.804551 0.114725
vt 0.196217 0.114726
vt 0.804551 0.169765
vt 0.196217 0.169765
vt 0.804551 0.224804
vt 0.196217 0.224804
vt 0.804551 0.279843
vt 0.196217 0.279843
vt 0.804551 0.334882
vt 0.196217 0.334882
vt 0.804551 0.389922
vt 0.196217 0.389922
vt 0.804551 0.444961
vt 0.196217 0.444961
vt 0.218460 0.444961
vt 0.839793 0.444961
vt 0.218460 0.389921
vt 0.839793 0.389921
vt 0.218460 0.334882
vt 0.839793 0.334882
vt 0.218460 0.279843
vt 0.839793 0.279843
vt 0.218460 0.224804
vt 0.839793 0.224804
vt 0.218460 0.169765
vt 0.839793 0.169765
vt 0.218460 0.114725
vt 0.839793 0.114725
vt 0.729676 0.444961
vt 0.729676 0.389921
vt 0.729676 0.334882
vt 0.729676 0.279843
vt 0.729676 0.224804
vt 0.729676 0.169765
vt 0.729676 0.114725
vt 0.729676 0.059686
vt 0.425798 0.059686
vt 0.732086 0.059686
vt 0.425798 0.114725
vt 0.732086 0.114726
vt 0.425798 0.169765
vt 0.732086 0.169765
vt 0.425798 0.224804
vt 0.732086 0.224804
vt 0.425798 0.279843
vt 0.732086 0.279843
vt 0.425799 0.334882
vt 0.732086 0.334882
vt 0.425799 0.389922
vt 0.732086 0.389922
vt 0.425799 0.444961
vt 0.732086 0.444961
vt 0.550232 0.114725
vt 0.754329 0.114726
vt 0.550232 0.169765
vt 0.754329 0.169765
vt 0.550232 0.224804
vt 0.754329 0.224804
vt 0.550232 0.279843
vt 0.754329 0.279843
vt 0.550232 0.334882
vt 0.754329 0.334882
vt 0.550232 0.389922
vt 0.754329 0.389922
vt 0.550232 0.444961
vt 0.754329 0.444961
vt 0.547822 0.444961
vt 0.547822 0.389921
vt 0.547822 0.334882
vt 0.547822 0.279843
vt 0.547822 0.224804
vt 0.547822 0.169765
vt 0.547822 0.114725
vt 0.705130 0.059686
vt 0.705130 0.114726
vt 0.705130 0.169765
vt 0.705130 0.224804
vt 0.705130 0.279843
vt 0.705130 0.334882
vt 0.705130 0.389922
vt 0.705130 0.444961
vt 0.701697 0.444961
vt 0.811051 0.444961
vt 0.701697 0.389921
vt 0.811051 0.389921
vt 0.701697 0.334882
vt 0.811051 0.334882
vt 0.701697 0.279843
vt 0.811050 0.279843
vt 0.701697 0.224804
vt 0.811050 0.224804
vt 0.701697 0.169765
vt 0.811050 0.169765
vt 0.701697 0.114725
vt 0.811050 0.114725
vt 0.701697 0.059686
vt 0.811050 0.059686
vt 0.778876 0.444961
vt 0.778876 0.389921
vt 0.778876 0.334882
vt 0.778876 0.279843
vt 0.778876 0.224804
vt 0.778876 0.169765
vt 0.778875 0.114725
vt 0.782308 0.114726
vt 0.833293 0.114725
vt 0.782308 0.169765
vt 0.833293 0.169765
vt 0.782308 0.224804
vt 0.833293 0.224804
vt 0.782308 0.279843
vt 0.833293 0.279843
vt 0.782308 0.334882
vt 0.833293 0.334882
vt 0.782308 0.389922
vt 0.833293 0.389922
vt 0.782308 0.444961
vt 0.833293 0.444961
vt 0.705130 0.496275
vt 0.532087 0.689252
vt 0.729676 0.496275
vt 0.547656 0.689252
vt 0.778876 0.495591
vt 0.532087 0.661799
vt 0.782308 0.495613
vt 0.833293 0.495613
vt 0.529910 0.662542
vt 0.701697 0.496259
vt 0.811051 0.496259
vt 0.529910 0.688509
vt 0.433321 0.496229
vt 0.549185 0.687102
vt 0.425799 0.496264
vt 0.732086 0.496264
vt 0.549185 0.688730
vt 0.550232 0.495591
vt 0.754329 0.495591
vt 0.547656 0.661799
vt 0.547822 0.495606
vt 0.549185 0.662320
vt 0.804551 0.496229
vt 0.196217 0.496230
vt 0.529910 0.687102
vt 0.540300 0.495653
vt 0.549185 0.663948
vt 0.218460 0.495653
vt 0.839793 0.495653
vt 0.529910 0.663948
vt 0.433321 0.056001
vt 0.526750 0.479283
vt 0.487929 0.059686
vt 0.526750 0.471620
vt 0.196217 0.056001
vt 0.804551 0.056001
vt 0.531608 0.479283
vt 0.811050 0.055595
vt 0.701697 0.055595
vt 0.531608 0.480195
vt 0.729676 0.055383
vt 0.527135 0.480676
vt 0.732086 0.055532
vt 0.425798 0.055532
vt 0.526750 0.480338
vt 0.705130 0.055383
vt 0.531059 0.480676
vt 0.778875 0.064756
vt 0.531059 0.462606
vt 0.782308 0.064453
vt 0.833293 0.064453
vt 0.531608 0.463103
vt 0.550232 0.064756
vt 0.754329 0.064756
vt 0.527135 0.462606
vt 0.547822 0.064543
vt 0.526750 0.462955
vt 0.540300 0.063887
vt 0.526750 0.464043
vt 0.218460 0.063887
vt 0.839793 0.063887
vt 0.531608 0.464043
vt 0.051735 0.059686
vt 0.134872 0.548446
vt 0.051669 0.056001
vt 0.554718 0.479283
vt 0.133987 0.548521
vt 0.362237 0.114725
vt 0.144249 0.535785
vt 0.363008 0.063887
vt 0.554718 0.464043
vt 0.133986 0.538475
vt 0.361454 0.169765
vt 0.154676 0.531018
vt 0.360746 0.224804
vt 0.164101 0.524542
vt 0.360135 0.279843
vt 0.172238 0.516553
vt 0.359639 0.334882
vt 0.178838 0.507295
vt 0.359379 0.374070
vt 0.375000 0.307300
vt 0.182300 0.500000
vt 0.056123 0.391828
vt 0.375000 0.318278
vt 0.193278 0.500000
vt 0.056114 0.389922
vt 0.193159 0.500436
vt 0.055692 0.334882
vt 0.187553 0.512246
vt 0.055121 0.279843
vt 0.179945 0.522918
vt 0.054416 0.224804
vt 0.170565 0.532128
vt 0.053600 0.169765
vt 0.159700 0.539594
vt 0.052697 0.114725
vt 0.147680 0.545089
vt 0.359274 0.389922
vt 0.183707 0.532036
vt 0.359379 0.374070
vt 0.375000 0.307300
vt 0.182307 0.534987
vt 0.359050 0.444961
vt 0.186685 0.521116
vt 0.358980 0.495654
vt 0.440781 0.663948
vt 0.187607 0.510742
vt 0.056371 0.444961
vt 0.196597 0.522835
vt 0.056453 0.496229
vt 0.441260 0.687102
vt 0.197672 0.510741
vt 0.056122 0.391828
vt 0.375000 0.318278
vt 0.193284 0.534987
s 0
usemtl Boundry_Wall
f 117/200/2 105/170/2 16/17/2 116/198/2
f 118/203/46 30/44/46 115/195/46 119/205/46
f 29/42/47 30/44/47 118/203/47 120/208/47
f 28/40/48 29/42/48 120/208/48 121/210/48
f 27/38/49 28/40/49 121/210/49 122/212/49
f 26/36/50 27/38/50 122/212/50 123/214/50
f 25/34/51 26/36/51 123/214/51 124/216/51 133/236/51 132/234/51
f 24/32/52 25/34/52 132/234/52 134/239/52
f 135/241/53 102/163/53 24/32/53 134/239/53
f 136/244/5 23/31/5 100/159/5 137/246/5
f 138/249/6 125/219/6 126/222/6 22/29/6 23/31/6 136/244/6
f 127/224/7 21/27/7 22/29/7 126/222/7
f 128/226/8 20/25/8 21/27/8 127/224/8
f 129/228/9 19/23/9 20/25/9 128/226/9
f 130/230/10 18/21/10 19/23/10 129/228/10
f 131/232/11 17/19/11 18/21/11 130/230/11
f 116/198/12 16/17/12 17/19/12 131/232/12
f 101/162/54 99/157/54 98/155/54 93/141/54 94/144/54 102/165/54 135/242/54 137/247/54 100/160/54 95/147/54 91/137/54 92/139/54 97/152/54 96/149/54
f 115/197/55 111/187/55 110/184/55 112/190/55 113/192/55 114/194/55 104/169/55 103/167/55 108/180/55 107/177/55 109/182/55 106/175/55 105/172/55 117/201/55 119/206/55
f 133/237/56 124/217/56 125/220/56 138/250/56
f 125/221/57 124/218/57 123/215/57 122/213/57 121/211/57 120/209/57 118/204/57 119/207/57 117/202/57 116/199/57 131/233/57 130/231/57 129/229/57 128/227/57 127/225/57 126/223/57
f 134/240/57 132/235/57 133/238/57 138/251/57 136/245/57 137/248/57 135/243/57
usemtl Boundry_Wall_Plinth
f 104/168/1 8/8/1 103/166/1
f 76/114/3 16/16/3 105/171/3 106/173/3
f 108/178/4 39/55/4 38/53/4 107/176/4
f 107/176/2 38/53/2 61/91/2 109/181/2
f 68/98/5 31/46/5 92/138/5 91/136/5
f 68/98/6 67/97/6 32/47/6 31/46/6
f 67/97/7 66/96/7 33/48/7 32/47/7
f 66/96/8 65/95/8 34/49/8 33/48/8
f 65/95/9 64/94/9 35/50/9 34/49/9
f 64/94/10 63/93/10 36/51/10 35/50/10
f 63/93/11 62/92/11 37/52/11 36/51/11
f 62/92/12 61/91/12 38/53/12 37/52/12
f 77/115/13 90/134/13 94/142/13 93/140/13
f 77/115/14 78/116/14 89/132/14 90/134/14
f 78/116/15 79/117/15 88/130/15 89/132/15
f 79/117/16 80/118/16 87/128/16 88/130/16
f 80/118/17 81/119/17 86/126/17 87/128/17
f 81/119/18 82/120/18 85/124/18 86/126/18
f 82/120/19 83/121/19 84/122/19 85/124/19
f 111/185/20 84/122/20 83/121/20 110/183/20
f 61/91/21 76/113/21 106/174/21 109/181/21
f 61/91/22 62/92/22 75/111/22 76/113/22
f 62/92/23 63/93/23 74/109/23 75/111/23
f 63/93/24 64/94/24 73/107/24 74/109/24
f 64/94/25 65/95/25 72/105/25 73/107/25
f 65/95/26 66/96/26 71/103/26 72/105/26
f 66/96/27 67/97/27 70/101/27 71/103/27
f 67/97/28 68/98/28 69/99/28 70/101/28
f 69/99/29 68/98/29 91/136/29 95/145/29
f 103/166/1 8/8/1 39/54/1 108/179/1
f 8/8/1 7/7/1 40/56/1 39/54/1
f 7/7/1 6/6/1 41/58/1 40/56/1
f 6/6/1 5/5/1 42/60/1 41/58/1
f 5/5/1 4/4/1 43/62/1 42/60/1
f 4/4/1 3/3/1 44/64/1 43/62/1
f 3/3/1 2/2/1 45/66/1 44/64/1
f 2/2/1 1/1/1 46/68/1 45/66/1
f 46/68/1 1/1/1 96/148/1 97/150/1
f 47/70/30 60/90/30 113/191/30 112/188/30
f 47/70/31 48/72/31 59/89/31 60/90/31
f 48/72/32 49/74/32 58/88/32 59/89/32
f 49/74/33 50/76/33 57/87/33 58/88/33
f 50/76/34 51/78/34 56/86/34 57/87/34
f 51/78/35 52/80/35 55/85/35 56/86/35
f 52/80/36 53/82/36 54/84/36 55/85/36
f 54/84/37 53/82/37 98/153/37 99/156/37
f 31/46/38 46/69/38 97/151/38 92/138/38
f 31/46/39 32/47/39 45/67/39 46/69/39
f 32/47/40 33/48/40 44/65/40 45/67/40
f 33/48/41 34/49/41 43/63/41 44/65/41
f 34/49/42 35/50/42 42/61/42 43/63/42
f 35/50/43 36/51/43 41/59/43 42/61/43
f 36/51/44 37/52/44 40/57/44 41/59/44
f 37/52/45 38/53/45 39/55/45 40/57/45
f 110/183/46 83/121/46 47/71/46 112/189/46
f 83/121/47 82/120/47 48/73/47 47/71/47
f 82/120/48 81/119/48 49/75/48 48/73/48
f 81/119/49 80/118/49 50/77/49 49/75/49
f 80/118/50 79/117/50 51/79/50 50/77/50
f 79/117/51 78/116/51 52/81/51 51/79/51
f 78/116/52 77/115/52 53/83/52 52/81/52
f 53/83/53 77/115/53 93/140/53 98/154/53
f 23/30/3 69/100/3 95/146/3 100/158/3
f 23/30/3 22/28/3 70/102/3 69/100/3
f 22/28/3 21/26/3 71/104/3 70/102/3
f 21/26/3 20/24/3 72/106/3 71/104/3
f 20/24/3 19/22/3 73/108/3 72/106/3
f 19/22/3 18/20/3 74/110/3 73/108/3
f 18/20/3 17/18/3 75/112/3 74/110/3
f 17/18/3 16/16/3 76/114/3 75/112/3
f 15/15/1 54/84/1 99/156/1 101/161/1
f 15/15/1 14/14/1 55/85/1 54/84/1
f 14/14/1 13/13/1 56/86/1 55/85/1
f 13/13/1 12/12/1 57/87/1 56/86/1
f 12/12/1 11/11/1 58/88/1 57/87/1
f 11/11/1 10/10/1 59/89/1 58/88/1
f 10/10/1 9/9/1 60/90/1 59/89/1
f 60/90/1 9/9/1 114/193/1 113/191/1
f 115/196/3 30/45/3 84/123/3 111/186/3
f 30/45/3 29/43/3 85/125/3 84/123/3
f 29/43/3 28/41/3 86/127/3 85/125/3
f 28/41/3 27/39/3 87/129/3 86/127/3
f 27/39/3 26/37/3 88/131/3 87/129/3
f 26/37/3 25/35/3 89/133/3 88/131/3
f 25/35/3 24/33/3 90/135/3 89/133/3
f 90/135/3 24/33/3 102/164/3 94/143/3
f 1/1/1 15/15/1 101/161/1 96/148/1
f 1/1/1 2/2/1 14/14/1 15/15/1
f 2/2/1 3/3/1 13/13/1 14/14/1
f 3/3/1 4/4/1 12/12/1 13/13/1
f 4/4/1 5/5/1 11/11/1 12/12/1
f 5/5/1 6/6/1 10/10/1 11/11/1
f 6/6/1 7/7/1 9/9/1 10/10/1
f 114/193/1 9/9/1 7/7/1 8/8/1 104/168/1
